<?xml version="1.0" encoding="utf-8"?>
<!-- Generator: Adobe Illustrator 16.0.0, SVG Export Plug-In . SVG Version: 6.00 Build 0)  -->
<!DOCTYPE svg PUBLIC "-//W3C//DTD SVG 1.0//EN" "http://www.w3.org/TR/2001/REC-SVG-20010904/DTD/svg10.dtd">
<svg version="1.0" id="Layer_1" xmlns="http://www.w3.org/2000/svg" xmlns:xlink="http://www.w3.org/1999/xlink" x="0px" y="0px"
	 width="96px" height="96px" viewBox="0 0 96 96" enable-background="new 0 0 96 96" xml:space="preserve">
 width="90px" height="90px" viewBox="0 0 90 90" enable-background="new 0 0 90 90" xml:space="preserve">
<g>
	<path fill="#BA141A" d="M63.755,43.551c-11.108,0-20.114,9.006-20.114,20.116c0,11.106,9.006,20.113,20.114,20.113
		c11.109,0,20.114-9.007,20.114-20.113C83.869,52.559,74.864,43.551,63.755,43.551z M61.943,51.438h4.579v14.889h-4.579V51.438z
		 M64.43,74.73c-1.422,0-2.577-1.155-2.577-2.577c0-1.423,1.155-2.577,2.577-2.577c1.423,0,2.577,1.154,2.577,2.577
		C67.007,73.575,65.853,74.73,64.43,74.73z"/>
	<path fill="#BA141A" d="M76.705,23.19l-1.196,0.88c-3.42,2.514-6.886,2.559-9.481,0.032c-3.354-3.263-1.862-7.063-0.02-9.675
		l0.836-1.183L56.028,2.433L41.56,16.893l-4.589,4.492L2.5,55.858l10.96,11.009l1.21-1.035c1.513-1.295,3.125-1.951,4.789-1.951
		c1.711,0,3.422,0.712,4.693,1.953c3.553,3.472,1.514,7.526-0.018,9.634l-0.863,1.188l10.93,10.911l10.202-10.2
		c-2.746-3.872-4.377-8.592-4.377-13.7c0-10.904,7.367-20.069,17.387-22.846l-1.956-1.974l3.288-3.263l4.35,4.386
		c0.22-0.006,0.437-0.033,0.659-0.033c5.074,0,9.766,1.607,13.623,4.318L87.5,34.133L76.705,23.19z M38.968,22.338l3.292-3.261
		l5.033,5.073l-3.293,3.263L38.968,22.338z M53.213,36.645l-6.967-7.027l3.29-3.263l6.966,7.025L53.213,36.645z"/>
	<path fill="#BA141A" d="M76.705,23.19l-1.735,1.253c-3.587,2.183-6.845,2.195-9.175-0.579c-2.812-3.346-1.886-6.271-0.043-8.882
		l1.09-1.737L56.027,2.433L41.56,16.893l-4.868,4.772L2.501,55.858l6.87,6.9l37.16-15.38c2.923-3.091,6.658-5.396,10.87-6.57
		l-1.943-1.961l3.288-3.263l4.334,4.37c0.225-0.007,0.448-0.019,0.675-0.019c0.225,0,0.447,0.027,0.673,0.034l20.474-8.474
		L76.705,23.19z M38.968,22.338l3.292-3.261l5.033,5.073l-3.293,3.263L38.968,22.338z M53.213,36.645l-6.967-7.027l3.29-3.263
		l6.966,7.025L53.213,36.645z"/>
</g>
</svg>
