<?xml version="1.0" encoding="utf-8"?>
<svg viewBox="0 0 16 16" xmlns="http://www.w3.org/2000/svg" style="fill: #0072C6">
  <g transform="matrix(1.251894, 0, 0, 1.251894, -3.267047, -4.459164)">
    <path d="M 13.526 13 L 4.492 13 C 3.944 13 3.5 12.556 3.5 12.008 L 3.5 4.935 C 3.5 4.42 3.88 4 4.348 4 L 13.651 4 C 14.12 4 14.5 4.42 14.5 4.935 L 14.5 12.025 C 14.5 12.564 14.064 13 13.526 13 Z M 4.5 12 L 13.5 12 L 13.5 5 L 4.5 5 L 4.5 12 Z"/>
    <polygon points="12.5 16 5.5 16 6.5 15 11.5 15"/>
    <rect x="8.5" y="12" width="1" height="4"/>
  </g>
  <g transform="matrix(1, 0, 0, 1, 0, -0.5)">
    <path d="M 7.889 3.671 L 7.855 3.671 C 7.162 3.671 6.519 3.915 6 4.301 L 4.948 3.25 L 4.948 6.017 L 7.681 6.017 L 7.715 6.017 L 6.67 4.972 C 7.014 4.709 7.423 4.563 7.889 4.563 C 8.927 4.563 9.787 5.293 9.969 6.248 L 10.881 6.248 C 10.658 4.786 9.415 3.671 7.889 3.671 Z"/>
    <path d="M 11.018 7.284 L 8.284 7.284 L 8.299 7.291 L 8.284 7.291 L 9.297 8.303 C 8.953 8.543 8.543 8.671 8.078 8.671 C 7.142 8.671 6.345 8.038 6.073 7.185 L 5.115 7.185 C 5.415 8.549 6.621 9.563 8.078 9.563 L 8.11 9.563 C 8.793 9.563 9.428 9.328 9.945 8.952 L 11.051 10.058 L 11.051 9.984 L 11.051 7.291 L 11.051 7.284 L 11.018 7.284 Z"/>
  </g>
</svg>
