<svg width="130" height="130" viewBox="10 14 95 85" version="1.1" xmlns="http://www.w3.org/2000/svg" xmlns:xlink="http://www.w3.org/1999/xlink">
<title>Frame</title>
<desc>Created using Figma</desc>
<g id="Canvas" transform="translate(288 -3031)">
<clipPath id="clip-0" clip-rule="evenodd">
<path d="M -288 3031L -173 3031L -173 3146L -288 3146L -288 3031Z" fill="#FFFFFF"/>
</clipPath>
<g id="Frame" clip-path="url(#clip-0)">
<path d="M -288 3031L -173 3031L -173 3146L -288 3146L -288 3031Z" fill="#FFFFFF"/>
<g id="Group">
<g id="FxSymbol0-0e8">
<g id="Group">
<g id="Vector">
<use xlink:href="#path0_fill" transform="translate(-262.122 3115.25)" fill="#7A7A7A"/>
</g>
<g id="Vector">
<use xlink:href="#path1_fill" transform="translate(-278.999 3044)" fill="#A0A1A2"/>
</g>
<g id="Vector" opacity="0.2">
<use xlink:href="#path2_fill" transform="translate(-279 3044)" fill="#FFFFFF"/>
</g>
<g id="Vector">
<use xlink:href="#path3_fill" transform="translate(-271.609 3051.51)" fill="#59B4D9"/>
</g>
<g id="Vector">
<use xlink:href="#path4_fill" transform="translate(-271.609 3051.39)" fill="#59B4D9"/>
</g>
<g id="Vector">
<use xlink:href="#path5_fill" transform="translate(-262.122 3128.11)" fill="#A0A1A2"/>
</g>
<g id="Vector">
<use xlink:href="#path6_fill" transform="translate(-232.005 3046.7)" fill="#B8D432"/>
</g>
</g>
</g>
<g id="FxSymbol0-053">
<g id="Group">
<g id="Vector">
<use xlink:href="#path7_fill" transform="translate(-245.847 3067.4)" fill="#FFFFFF"/>
</g>
</g>
</g>
</g>
</g>
</g>
<defs>
<path id="path0_fill" d="M 46.3575 7.73688e-07L 19.843 7.73688e-07C 23.0295 11.2486 18.7489 12.8614 -5.20751e-07 12.8614L -5.20751e-07 18.7509L 63.7549 18.7509L 63.7549 12.8614C 45.006 12.8614 43.167 11.2544 46.3575 7.73688e-07"/>
<path id="path1_fill" d="M 91.617 0L 5.29861 0C 2.36555 0 9.2628e-11 2.62298 9.2628e-11 5.55213L 9.2628e-11 65.746C 9.2628e-11 68.6576 2.36555 71.2514 5.29861 71.2514L 91.617 71.2514C 94.5442 71.2514 97.5084 68.6576 97.5084 65.746L 97.5084 5.55213C 97.5084 2.61518 94.5442 0 91.617 0Z"/>
<path id="path2_fill" d="M 91.6794 0.00390038L 91.6189 -1.41347e-07L 5.29861 -1.41347e-07C 2.36556 -1.41347e-07 0 2.62103 0 5.55213L 0 65.7441C 0 68.6576 2.36556 71.2514 5.29861 71.2514L 7.35214 71.2514L 91.6794 0.00390038Z"/>
<path id="path3_fill" d="M 82.5078 9.6711e-08L 82.5078 56.2448L -7.43931e-08 56.2448L -7.43931e-08 9.6711e-08L 82.5078 9.6711e-08Z"/>
<path id="path4_fill" d="M -7.4393e-08 56.356L 0.11311 56.356L 0.11311 0.11311L 75.5456 -2.1574e-07L 75.5495 -2.1574e-07L -7.4393e-08 0.11311L -7.4393e-08 56.356Z"/>
<path id="path5_fill" d="M -5.20751e-07 -3.21378e-06L 63.7549 -3.21378e-06L 63.7549 5.89146L -5.20751e-07 5.89146L -5.20751e-07 -3.21378e-06Z"/>
<path id="path6_fill" d="M 2.76924 1.38462C 2.76924 1.75184 2.62336 2.10403 2.36369 2.36369C 2.10403 2.62336 1.75185 2.76924 1.38462 2.76924C 1.0174 2.76924 0.665212 2.62336 0.405545 2.36369C 0.145879 2.10403 -8.33202e-07 1.75184 -8.33202e-07 1.38462C -8.33202e-07 1.0174 0.145879 0.665212 0.405545 0.405546C 0.665212 0.145879 1.0174 -1.85983e-08 1.38462 -1.85983e-08C 1.75185 -1.85983e-08 2.10403 0.145879 2.36369 0.405546C 2.62336 0.665212 2.76924 1.0174 2.76924 1.38462"/>
<path id="path7_fill" d="M 27.5872 1.82456C 24.6084 -1.40351 18.5268 -0.0377871 14.9274 4.99055C 10.4593 -0.348178 5.12235 -1.40351 2.08153 1.82456C -1.02135 5.17678 -0.214602 9.08771 1.64712 12.3158L 4.81206 12.2537L 7.85288 12.1295L 10.149 6.04588C 10.2731 5.67341 10.5214 4.99055 11.4522 4.99055C 12.4451 4.99055 12.5072 5.73549 12.5072 6.10795L 12.5693 16.2267L 14.1827 12.8124C 14.3069 12.502 14.6171 12.3158 14.9274 12.3158L 24.6084 12.3158C 25.0428 12.3158 25.4152 12.7503 25.4152 13.1849C 25.4152 13.6194 25.0428 14.2402 24.6084 14.2402L 15.9204 14.2402L 12.8175 20.448C 12.6313 21.0688 12.321 21.255 11.6384 21.193C 11.266 21.1309 10.9558 20.5722 10.9558 20.1997L 10.8316 10.888L 9.90078 13.4332C 9.83872 13.7436 9.52843 14.2402 9.21814 14.3023L 2.51593 14.3023C 6.30144 19.8272 12.8175 24.4831 14.6792 25.2901L 14.6792 25.3522L 14.6792 25.2901C 18.4027 23.9244 35.9649 10.888 27.5872 1.82456L 27.5872 1.82456Z"/>
</defs>
</svg>
