<?xml version="1.0" encoding="utf-8"?>
<!-- Generator: Adobe Illustrator 19.1.0, SVG Export Plug-In . SVG Version: 6.00 Build 0)  -->
<!DOCTYPE svg PUBLIC "-//W3C//DTD SVG 1.1//EN" "http://www.w3.org/Graphics/SVG/1.1/DTD/svg11.dtd">
<svg version="1.1" id="Layer_1" xmlns="http://www.w3.org/2000/svg" xmlns:xlink="http://www.w3.org/1999/xlink" x="0px" y="0px"
	 viewBox="-790 442 18 18" style="enable-background:new -790 442 18 18;" xml:space="preserve">
<style type="text/css">
	.st0{fill:#63707E;}
</style>
<g>
	<path class="st0" d="M-772.9,442h-16.2c-0.5,0-0.9,0.4-0.9,0.9V459c0,0.6,0.4,1,0.9,1h16.1c0.5,0,0.9-0.4,0.9-0.9v-16.2
		C-772,442.4-772.4,442-772.9,442z M-773,459h-16v-13h16V459z"/>
	<rect x="-785" y="447" class="st0" width="2" height="2"/>
	<rect x="-782" y="447" class="st0" width="2" height="2"/>
	<rect x="-788" y="450" class="st0" width="2" height="2"/>
	<rect x="-785" y="450" class="st0" width="2" height="2"/>
	<rect x="-782" y="450" class="st0" width="2" height="2"/>
	<rect x="-779" y="450" class="st0" width="2" height="2"/>
	<rect x="-788" y="453" class="st0" width="2" height="2"/>
	<rect x="-785" y="453" class="st0" width="2" height="2"/>
	<rect x="-788" y="456" class="st0" width="2" height="2"/>
	<rect x="-785" y="456" class="st0" width="2" height="2"/>
	<rect x="-782" y="456" class="st0" width="2" height="2"/>
	<rect x="-779" y="456" class="st0" width="2" height="2"/>
	<rect x="-782" y="453" class="st0" width="2" height="2"/>
	<rect x="-779" y="447" class="st0" width="2" height="2"/>
	<rect x="-779" y="453" class="st0" width="2" height="2"/>
	<rect x="-776" y="450" class="st0" width="2" height="2"/>
	<rect x="-776" y="447" class="st0" width="2" height="2"/>
	<rect x="-776" y="453" class="st0" width="2" height="2"/>
</g>
</svg>
