<?xml version="1.0" encoding="utf-8"?>
<!-- Generator: Adobe Illustrator 21.0.0, SVG Export Plug-In . SVG Version: 6.00 Build 0)  -->
<svg version="1.1" id="Layer_1" xmlns="http://www.w3.org/2000/svg" xmlns:xlink="http://www.w3.org/1999/xlink" x="0px" y="0px"
	 width="50px" height="50px" viewBox="0 0 50 50" enable-background="new 0 0 50 50" xml:space="preserve">
<path fill="#7A7A7A" d="M14,9.776C14,8.245,15.224,7,16.729,7H23V3.777C23,2.795,22.226,2,21.271,2H4.729C3.774,2,3,2.795,3,3.777
	v31.447C3,36.205,3.774,37,4.729,37H14V9.776z"/>
<path fill="#1E1E1E" d="M14,9.776C14,8.246,15.224,7,16.729,7H19.9c0-1-0.641-1-1.9-1H8C6.741,6,6.1,7,6.1,8s0.641,2.001,1.9,2h6
	V9.776z"/>
<ellipse fill="#B8D432" cx="9" cy="8" rx="1.4" ry="1.333"/>
<path fill="#1E1E1E" d="M14,12H8c-1.259,0-1.9,1-1.9,2s0.641,2.001,1.9,2h6V12z"/>
<ellipse fill="#B8D432" cx="9" cy="14" rx="1.4" ry="1.333"/>
<path fill="#1E1E1E" d="M14,18H8c-1.259,0-1.9,1-1.9,2s0.641,2.001,1.9,2h6V18z"/>
<ellipse fill="#B8D432" cx="9" cy="20" rx="1.4" ry="1.333"/>
<path fill="#7A7A7A" d="M26,15.776C26,14.245,27.224,13,28.729,13H35V9.777C35,8.795,34.226,8,33.271,8H16.729
	C15.774,8,15,8.795,15,9.777v31.447C15,42.205,15.774,43,16.729,43H26V15.776z"/>
<path fill="#1E1E1E" d="M26,15.776C26,14.246,27.224,13,28.729,13H31.9c0-1-0.641-1-1.9-1H20c-1.259,0-1.9,1-1.9,2
	s0.641,2.001,1.9,2h6V15.776z"/>
<ellipse fill="#B8D432" cx="21" cy="14" rx="1.4" ry="1.333"/>
<path fill="#1E1E1E" d="M26,18h-6c-1.259,0-1.9,1-1.9,2s0.641,2.001,1.9,2h6V18z"/>
<ellipse fill="#B8D432" cx="21" cy="20" rx="1.4" ry="1.333"/>
<path fill="#1E1E1E" d="M26,24h-6c-1.259,0-1.9,1-1.9,2s0.641,2.001,1.9,2h6V24z"/>
<ellipse fill="#B8D432" cx="21" cy="26" rx="1.4" ry="1.333"/>
<path fill="#7A7A7A" d="M47,47.223C47,48.205,46.226,49,45.271,49H28.729C27.774,49,27,48.205,27,47.223V15.777
	C27,14.795,27.774,14,28.729,14h16.543C46.226,14,47,14.795,47,15.777V47.223z"/>
<path fill="#1E1E1E" d="M32,18h10c1.259,0,1.9,1,1.9,2s-0.641,2-1.9,2H32c-1.259,0.001-1.9-1-1.9-2S30.741,18,32,18z"/>
<ellipse fill="#B8D432" cx="33" cy="20" rx="1.4" ry="1.333"/>
<path fill="#1E1E1E" d="M32,24h10c1.259,0,1.9,1,1.9,2s-0.641,2-1.9,2H32c-1.259,0.001-1.9-1-1.9-2S30.741,24,32,24z"/>
<ellipse fill="#B8D432" cx="33" cy="26" rx="1.4" ry="1.333"/>
<path fill="#1E1E1E" d="M32,30h10c1.259,0,1.9,1,1.9,2s-0.641,2-1.9,2H32c-1.259,0.001-1.9-1-1.9-2S30.741,30,32,30z"/>
<ellipse fill="#B8D432" cx="33" cy="32" rx="1.4" ry="1.333"/>
</svg>
