<svg xmlns="http://www.w3.org/2000/svg" viewBox="0 0 465.23 465.23"><defs><style>.a{fill:#f6f8f9;}.b{fill:none;stroke:#e7e7e4;stroke-miterlimit:10;stroke-width:3px;}.c{fill:#e7e7e4;}</style></defs><title>Artboard 3</title><circle class="a" cx="232.61" cy="232.61" r="232.61"/><rect class="b" x="172.58" y="148.11" width="110" height="142.42"/><rect class="b" x="322.91" y="160.78" width="87.33" height="27"/><rect class="b" x="322.91" y="209.45" width="87.33" height="27"/><rect class="b" x="322.91" y="263.45" width="87.33" height="27"/><rect class="c" x="49.24" y="199.45" width="87.33" height="5.17"/><rect class="c" x="49.24" y="265.95" width="87.33" height="5.17"/><rect class="c" x="322.91" y="263.45" width="87.33" height="5.17"/><rect class="c" x="322.91" y="209.45" width="87.33" height="5.17"/><rect class="c" x="322.91" y="161.53" width="87.33" height="5.17"/><rect class="c" x="173.58" y="147.53" width="110" height="5.17"/><rect class="b" x="49.24" y="199.45" width="87.33" height="39.33"/><rect class="b" x="49.24" y="265.78" width="87.33" height="27"/><circle class="c" cx="186.78" cy="163.95" r="6.86"/><circle class="c" cx="335.58" cy="176.58" r="6.86"/><circle class="c" cx="335.58" cy="224.61" r="6.86"/><circle class="c" cx="335.58" cy="278.53" r="6.86"/><circle class="c" cx="61.64" cy="280.45" r="6.86"/><circle class="c" cx="61.64" cy="215.61" r="6.86"/><rect class="c" x="199.45" y="159.08" width="35.17" height="4.2" rx="2.1" ry="2.1"/><rect class="c" x="182.42" y="181.4" width="58.67" height="5.25" rx="2.1" ry="2.1"/><rect class="c" x="182.42" y="193.82" width="58.67" height="5.25" rx="2.1" ry="2.1"/><rect class="c" x="262.11" y="192.82" width="11.97" height="4.2" rx="2.1" ry="2.1"/><rect class="c" x="182.42" y="206.24" width="48.36" height="5.25" rx="2.1" ry="2.1"/><rect class="c" x="182.42" y="218.65" width="58.67" height="5.25" rx="2.1" ry="2.1"/><rect class="c" x="262.11" y="217.65" width="11.97" height="4.2" rx="2.1" ry="2.1"/><rect class="c" x="182.42" y="233.89" width="58.67" height="5.25" rx="2.1" ry="2.1"/><rect class="c" x="182.42" y="246.31" width="58.67" height="5.25" rx="2.1" ry="2.1"/><rect class="c" x="182.42" y="260.36" width="48.36" height="5.25" rx="2.1" ry="2.1"/><rect class="c" x="182.42" y="272.78" width="58.67" height="5.25" rx="2.1" ry="2.1"/><rect class="c" x="262.11" y="272.78" width="11.97" height="4.2" rx="2.1" ry="2.1"/><rect class="c" x="346.99" y="171.03" width="35.17" height="4.2" rx="2.1" ry="2.1"/><rect class="c" x="346.99" y="219.85" width="35.17" height="4.2" rx="2.1" ry="2.1"/><rect class="c" x="346.99" y="273.68" width="35.17" height="4.2" rx="2.1" ry="2.1"/><rect class="c" x="346.99" y="281.48" width="17.58" height="4.2" rx="2.1" ry="2.1"/><rect class="c" x="346.99" y="227.01" width="17.58" height="4.2" rx="2.1" ry="2.1"/><rect class="c" x="346.99" y="178.25" width="17.58" height="4.2" rx="2.1" ry="2.1"/><rect class="c" x="73.33" y="209.4" width="35.17" height="4.2" rx="2.1" ry="2.1"/><rect class="c" x="73.33" y="217.62" width="17.58" height="4.2" rx="2.1" ry="2.1"/><rect class="c" x="73.33" y="274.24" width="35.17" height="4.2" rx="2.1" ry="2.1"/><rect class="c" x="73.33" y="282.46" width="17.58" height="4.2" rx="2.1" ry="2.1"/><rect class="c" x="120.62" y="228.56" width="8.83" height="4.2" rx="2.1" ry="2.1"/><rect class="c" x="106.93" y="228.56" width="8.83" height="4.2" rx="2.1" ry="2.1"/><line class="b" x1="136.58" y1="221.21" x2="172.58" y2="221.21"/><line class="b" x1="136.58" y1="282.46" x2="172.58" y2="221.21"/><line class="b" x1="282.11" y1="221.95" x2="322.91" y2="176.58"/><line class="b" x1="282.11" y1="221.95" x2="322.91" y2="221.95"/><line class="b" x1="282.11" y1="221.95" x2="322.91" y2="279.04"/></svg>