<?xml version="1.0" encoding="utf-8"?>
<!-- Generator: Adobe Illustrator 21.0.0, SVG Export Plug-In . SVG Version: 6.00 Build 0)  -->
<svg version="1.1" id="Layer_1" xmlns="http://www.w3.org/2000/svg" xmlns:xlink="http://www.w3.org/1999/xlink" x="0px" y="0px"
	 width="50px" height="50px" viewBox="0 0 50 50" enable-background="new 0 0 50 50" xml:space="preserve">
<path fill="#FFFFFF" d="M10,37H5V6h15v21h3V4.777C23,3.795,22.226,3,21.272,3H3.729C2.774,3,2,3.795,2,4.777v33.446C2,39.205,2.774,40,3.729,40H10
	V37z"/>
<path fill="#FFFFFF" d="M34.611,23h-8.221C25.77,23,25,23.827,25,24.5V35h2V25h7v18h-7v-1h-2v1.782C25,44.455,25.502,45,26.121,45h8.758
	C35.498,45,36,44.455,36,43.782V24.5C36,23.827,35.23,23,34.611,23z"/>
<g>
	<polygon fill="#FFFFFF" points="23,29 20,29 20,37 12,37 12,40 20,40 20,48 23,48 23,40 31,40 31,37 23,37 23,29 	"/>
</g>
<path fill-rule="evenodd" clip-rule="evenodd" fill="#FFFFFF" d="M7,9h11v3H7V9z"/>
<path fill-rule="evenodd" clip-rule="evenodd" fill="#FFFFFF" d="M7,25h11v3H7V25z"/>
<path fill-rule="evenodd" clip-rule="evenodd" fill="#FFFFFF" d="M7,31h11v3H7V31z"/>
<rect fill="#FFFFFF" x="28" y="27" width="5" height="2"/>
<g>
	<path fill="#FFFFFF" d="M46,25v18h-7V25H46 M46.611,23h-8.221C37.77,23,37,23.827,37,24.5v19.282C37,44.455,37.502,45,38.121,45h8.758
		C47.498,45,48,44.455,48,43.782V24.5C48,23.827,47.23,23,46.611,23L46.611,23z"/>
</g>
<g>
	<polygon fill="#FFFFFF" points="45,27 40,27 40,29 45,29 45,27 	"/>
</g>
<g>
	<polygon fill="#FFFFFF" points="45,36 40,36 40,38 45,38 45,36 	"/>
</g>
<g>
	<polygon fill="#FFFFFF" points="45,39 40,39 40,41 45,41 45,39 	"/>
</g>
</svg>
