<?xml version="1.0" encoding="UTF-8" standalone="no"?>
<!-- Generator: Adobe Illustrator 19.1.0, SVG Export Plug-In . SVG Version: 6.00 Build 0)  -->

<svg
   xmlns:dc="http://purl.org/dc/elements/1.1/"
   xmlns:cc="http://creativecommons.org/ns#"
   xmlns:rdf="http://www.w3.org/1999/02/22-rdf-syntax-ns#"
   xmlns:svg="http://www.w3.org/2000/svg"
   xmlns="http://www.w3.org/2000/svg"
   xmlns:sodipodi="http://sodipodi.sourceforge.net/DTD/sodipodi-0.dtd"
   xmlns:inkscape="http://www.inkscape.org/namespaces/inkscape"
   version="1.1"
   id="Layer_1"
   x="0px"
   y="0px"
   viewBox="-295 386 16 16"
   xml:space="preserve"
   inkscape:version="0.91 r13725"
   sodipodi:docname="no_new_alert_notification.svg"
   width="16"
   height="16"><metadata
     id="metadata13"><rdf:RDF><cc:Work
         rdf:about=""><dc:format>image/svg+xml</dc:format><dc:type
           rdf:resource="http://purl.org/dc/dcmitype/StillImage" /><dc:title></dc:title></cc:Work></rdf:RDF></metadata><defs
     id="defs11" /><sodipodi:namedview
     pagecolor="#000000"
     bordercolor="#666666"
     borderopacity="1"
     objecttolerance="10"
     gridtolerance="10"
     guidetolerance="10"
     inkscape:pageopacity="0"
     inkscape:pageshadow="2"
     inkscape:window-width="1226"
     inkscape:window-height="678"
     id="namedview9"
     showgrid="false"
     inkscape:zoom="11.238095"
     inkscape:cx="10.5"
     inkscape:cy="10.5"
     inkscape:window-x="0"
     inkscape:window-y="0"
     inkscape:window-maximized="0"
     inkscape:current-layer="Layer_1" /><style
     type="text/css"
     id="style3">
	.st0{fill:#202428;}
	.st1{fill:#FFFFFF;}
</style><path
     class="st1"
     d="m -280.05847,398.77966 0,1.1 -4.6,0 c 0,0.3 -0.1,0.6 -0.2,0.9 -0.1,0.3 -0.3,0.5 -0.5,0.7 -0.2,0.2 -0.5,0.4 -0.7,0.5 -0.3,0.1 -0.6,0.2 -0.9,0.2 -0.3,0 -0.6,-0.1 -0.9,-0.2 -0.3,-0.1 -0.5,-0.3 -0.7,-0.5 -0.2,-0.2 -0.4,-0.5 -0.5,-0.7 -0.1,-0.3 -0.2,-0.6 -0.2,-0.9 l -4.6,0 0,-1.1 1.1,0 0,-6.9 c 0,-0.5 0.1,-1 0.2,-1.5 0.1,-0.5 0.3,-0.9 0.6,-1.4 0.2,-0.4 0.5,-0.8 0.9,-1.2 0.3,-0.3 0.7,-0.6 1.2,-0.9 0.4,-0.2 0.9,-0.4 1.4,-0.6 0.5,-0.1 1,-0.2 1.5,-0.2 0.5,0 1,0.1 1.5,0.2 0.5,0.1 0.9,0.3 1.4,0.6 0.4,0.2 0.8,0.5 1.2,0.9 0.3,0.3 0.6,0.7 0.9,1.2 0.2,0.4 0.4,0.9 0.6,1.4 0.1,0.5 0.2,1 0.2,1.5 l 0,6.9 1.1,0 z m -2.3,0 0,-6.9 c 0,-0.6 -0.1,-1.2 -0.4,-1.8 -0.2,-0.6 -0.6,-1 -1,-1.5 -0.4,-0.4 -0.9,-0.7 -1.5,-1 -0.6,-0.2 -1.1,-0.4 -1.8,-0.4 -0.6,0 -1.2,0.1 -1.8,0.4 -0.6,0.2 -1,0.6 -1.5,1 -0.5,0.4 -0.7,0.9 -1,1.5 -0.2,0.6 -0.4,1.1 -0.4,1.8 l 0,6.9 9.4,0 z m -4.6,2.3 c 0.2,0 0.3,0 0.4,-0.1 0.1,-0.1 0.3,-0.1 0.4,-0.2 0.1,-0.1 0.2,-0.2 0.2,-0.4 0.1,-0.1 0.1,-0.3 0.1,-0.4 l -2.3,0 c 0,0.2 0,0.3 0.1,0.4 0.1,0.1 0.1,0.3 0.2,0.4 0.1,0.1 0.2,0.2 0.4,0.2 0.2,0 0.4,0.1 0.5,0.1 z"
     id="path7"
     inkscape:connector-curvature="0"
     style="fill:#e5e5e5" />
</svg>
