<?xml version="1.0" encoding="utf-8"?>
<!-- Generator: Adobe Illustrator 21.0.0, SVG Export Plug-In . SVG Version: 6.00 Build 0)  -->
<svg version="1.1" id="Layer_1" xmlns="http://www.w3.org/2000/svg" xmlns:xlink="http://www.w3.org/1999/xlink" x="0px" y="0px"
	 width="60px" height="60px" viewBox="0 0 60 60" enable-background="new 0 0 60 60" xml:space="preserve">
<path  fill-rule="evenodd" clip-rule="evenodd" fill="#FFFFFF" d="M24,28.5h18v3H24V28.5z"/>
<path fill-rule="evenodd" clip-rule="evenodd" fill="#FFFFFF" d="M19.939,21.939L29.879,12L32,14.121l-9.939,9.939L19.939,21.939z"
	/>
<path fill-rule="evenodd" clip-rule="evenodd" fill="#FFFFFF" d="M22.121,36l9.939,9.939l-2.121,2.121L20,38.121L22.121,36z"/>
<g>
	<path fill="#FFFFFF" d="M40,4v8h-8V4H40 M40.2,1h-8.4C30.26,1,29,2.26,29,3.8v8.4c0,1.54,1.26,2.8,2.8,2.8h8.4
		c1.54,0,2.8-1.26,2.8-2.8V3.8C43,2.26,41.74,1,40.2,1L40.2,1z"/>
</g>
<g>
	<path fill="#FFFFFF" d="M40,48v8h-8v-8H40 M40.2,45h-8.4c-1.54,0-2.8,1.26-2.8,2.8v8.4c0,1.54,1.26,2.8,2.8,2.8h8.4
		c1.54,0,2.8-1.26,2.8-2.8v-8.4C43,46.26,41.74,45,40.2,45L40.2,45z"/>
</g>
<g>
	<path fill="#FFFFFF" d="M51,26v8h-8v-8H51 M51.2,23h-8.4c-1.54,0-2.8,1.26-2.8,2.8v8.4c0,1.54,1.26,2.8,2.8,2.8h8.4
		c1.54,0,2.8-1.26,2.8-2.8v-8.4C54,24.26,52.74,23,51.2,23L51.2,23z"/>
</g>
<ellipse fill-rule="evenodd" clip-rule="evenodd" fill="none" stroke="#FFFFFF" stroke-width="3" stroke-miterlimit="10" cx="15" cy="30" rx="9.541" ry="9.5"/>
</svg>
