<?xml version="1.0" encoding="utf-8"?>
<!-- Generator: Adobe Illustrator 19.1.0, SVG Export Plug-In . SVG Version: 6.00 Build 0)  -->
<!DOCTYPE svg PUBLIC "-//W3C//DTD SVG 1.1//EN" "http://www.w3.org/Graphics/SVG/1.1/DTD/svg11.dtd">
<svg version="1.1" id="Layer_1" xmlns="http://www.w3.org/2000/svg" xmlns:xlink="http://www.w3.org/1999/xlink" x="0px" y="0px"
	 viewBox="0 0 150 150" style="enable-background:new 0 0 150 150;" xml:space="preserve">
<path fill="#e5e5e5" d="M33.6,110h18.3V97.8H58v-6.1h-6.1v-55H33.6v55h-6.1v6.1h6.1V110z M39.7,42.8h6.1v48.9h-6.1V42.8z M45.8,97.8v6.1h-6.1v-6.1
	H45.8z"/>
<path fill="#e5e5e5" d="M64.1,110h18.3V76.4h6.1v-6.1h-6.1V36.7H64.1v33.6H58v6.1h6.1V110z M76.3,103.9h-6.1V76.4h6.1V103.9z M70.2,42.8h6.1v27.5
	h-6.1V42.8z"/>
<path fill="#e5e5e5" d="M119.1,49H113V36.7H94.6V49h-6.1v6.1h6.1v55H113v-55h6.1V49z M100.8,42.8h6.1V49h-6.1V42.8z M106.9,103.9h-6.1V55.1h6.1
	V103.9z"/>
</svg>
