<?xml version="1.0" encoding="utf-8"?>
<!-- Generator: Adobe Illustrator 19.1.0, SVG Export Plug-In . SVG Version: 6.00 Build 0)  -->
<!DOCTYPE svg PUBLIC "-//W3C//DTD SVG 1.1//EN" "http://www.w3.org/Graphics/SVG/1.1/DTD/svg11.dtd">
<svg version="1.1" id="Layer_1" xmlns="http://www.w3.org/2000/svg" xmlns:xlink="http://www.w3.org/1999/xlink" x="0px" y="0px"
	 viewBox="-4 6 50 50" style="enable-background:new -4 6 50 50;" xml:space="preserve">
<style type="text/css">
	.st0{fill:#e5e5e5;}
	.st1{fill:#7a7a7a;}
</style>
<g>
	<path class="st0" d="M25.8,23.4c-3.2,0-6.5,0-9.7,0v2c3.2,0,6.5,0,9.7,0V23.4z"/>
	<polyline class="st1" points="-3,39.4 18,39.4 18,37.4 -3,37.4 	"/>
	<polyline class="st0" points="18,39.4 18,23.4 16,23.4 16,39.4 	"/>
	<polyline class="st1" points="25.8,25.4 25.8,6.4 23.8,6.4 23.8,25.4 	"/>
	<polyline class="st1" points="25.8,6.4 -3,6.4 -3,8.4 25.8,8.4 	"/>
	<g>
		<path class="st1" d="M43,25.4v29H18v-29H43 M45,23.4H16v33h29V23.4L45,23.4z"/>
	</g>
	<polygon class="st0" points="25,38.4 38,38.4 38,40.4 23,40.4 	"/>
	<rect class="st0" x="26" y="42.4" width="12" height="2"/>
	<polygon class="st0" points="38,36.4 28,36.4 30,34.4 38,34.4 	"/>
	<rect class="st0" x="22" y="42.4" width="2" height="2"/>
	<rect class="st0" x="26" y="46.4" width="12" height="2"/>
	<rect class="st0" x="4" y="18.4" width="15" height="2"/>
	<rect class="st0" x="4" y="26.4" width="10" height="2"/>
	<rect class="st0" x="4" y="22.4" width="10" height="2"/>
	<rect class="st0" x="4" y="14.4" width="15" height="2"/>
	<rect class="st0" x="22" y="46.4" width="2" height="2"/>
	<polygon class="st0" points="28.5,32.9 23,28.4 23,31.4 8,31.4 8,34.4 23,34.4 23,37.4 	"/>
	<polyline class="st1" points="-1,39.4 -1,6.4 -3,6.4 -3,39.4 	"/>
</g>
</svg>
