<?xml version="1.0" encoding="UTF-8" standalone="no"?>
<svg
   xmlns:osb="http://www.openswatchbook.org/uri/2009/osb"
   xmlns:dc="http://purl.org/dc/elements/1.1/"
   xmlns:cc="http://creativecommons.org/ns#"
   xmlns:rdf="http://www.w3.org/1999/02/22-rdf-syntax-ns#"
   xmlns:svg="http://www.w3.org/2000/svg"
   xmlns="http://www.w3.org/2000/svg"
   xmlns:sodipodi="http://sodipodi.sourceforge.net/DTD/sodipodi-0.dtd"
   xmlns:inkscape="http://www.inkscape.org/namespaces/inkscape"
   version="1.1"
   x="0px"
   y="0px"
   width="32px"
   height="32px"
   viewBox="0 0 32 32"
   xml:space="preserve"
   id="svg2"
   inkscape:version="0.91 r13725"
   sodipodi:docname="log_search.svg"><metadata
     id="metadata18"><rdf:RDF><cc:Work
         rdf:about=""><dc:format>image/svg+xml</dc:format><dc:type
           rdf:resource="http://purl.org/dc/dcmitype/StillImage" /></cc:Work></rdf:RDF></metadata><defs
     id="defs16"><linearGradient
       id="linearGradient4154"
       osb:paint="solid"><stop
         style="stop-color:#ffffff;stop-opacity:1;"
         offset="0"
         id="stop4156" /></linearGradient></defs><sodipodi:namedview
     pagecolor="#000000"
     bordercolor="#666666"
     borderopacity="1"
     objecttolerance="10"
     gridtolerance="10"
     guidetolerance="10"
     inkscape:pageopacity="0"
     inkscape:pageshadow="2"
     inkscape:window-width="1599"
     inkscape:window-height="754"
     id="namedview14"
     showgrid="false"
     inkscape:zoom="7.375"
     inkscape:cx="0.33898305"
     inkscape:cy="-0.27118644"
     inkscape:window-x="0"
     inkscape:window-y="0"
     inkscape:window-maximized="0"
     inkscape:current-layer="g4" /><g
     id="g4"><rect
       x="8"
       y="14"
       width="2"
       height="4"
       id="rect6"
       style="fill:#ffffff;fill-opacity:1" /><rect
       x="16"
       y="10"
       width="2"
       height="8"
       id="rect8"
       style="fill:#ffffff;fill-opacity:1" /><rect
       x="12"
       y="6"
       width="2"
       height="12"
       id="rect10"
       style="fill:#ffffff;fill-opacity:1" /><path
       d="M 30.707,29.293 21.451,20.037 C 23.042,18.13 24,15.677 24,13 24,6.925 19.075,2 13,2 6.925,2 2,6.925 2,13 c 0,6.075 4.925,11 11,11 2.677,0 5.13,-0.958 7.037,-2.548 l 4.001263,4.001263 3.118644,3.118644 L 29.292,30.707 C 29.488,30.902 29.744,31 30,31 c 0.256,0 0.512,-0.098 0.707,-0.293 0.391,-0.391 0.391,-1.023 0,-1.414 z M 4,13 c 0,-4.963 4.037,-9 9,-9 4.963,0 9,4.037 9,9 0,4.963 -4.037,9 -9,9 -4.963,0 -9,-4.037 -9,-9 z"
       id="path12"
       style="stroke:#ffffff;stroke-opacity:1;fill:#ffffff;fill-opacity:1"
       inkscape:connector-curvature="0"
       sodipodi:nodetypes="scssssccccssssssss" /></g></svg>