<?xml version="1.0" encoding="utf-8"?>
<!-- Generator: Adobe Illustrator 19.2.0, SVG Export Plug-In . SVG Version: 6.00 Build 0)  -->
<svg version="1.1" id="Layer_1" xmlns="http://www.w3.org/2000/svg" xmlns:xlink="http://www.w3.org/1999/xlink" x="0px" y="0px"
	 viewBox="0 0 50 50" style="enable-background:new 0 0 50 50;" xml:space="preserve">
<path  fill="#e5e5e5" d="M26.7,20v-3.6c2.9-0.7,5-3.3,5-6.4c0-3.7-3-6.6-6.6-6.6s-6.6,3-6.6,6.6c0,3.1,2.1,5.7,5,6.4V20H11.7L0.1,46.6h49.9L38.3,20
	H26.7z M21.7,10c0-1.8,1.5-3.3,3.3-3.3s3.3,1.5,3.3,3.3s-1.5,3.3-3.3,3.3S21.7,11.9,21.7,10z M5.2,43.3l8.7-19.9h9.5v10
	c0,0.9,0.7,1.7,1.7,1.7s1.7-0.7,1.7-1.7v-10h9.5l8.7,19.9H5.2z"/>
</svg>
