<?xml version="1.0" encoding="utf-8"?>
<!-- Generator: Adobe Illustrator 16.0.0, SVG Export Plug-In . SVG Version: 6.00 Build 0)  -->
<!DOCTYPE svg PUBLIC "-//W3C//DTD SVG 1.0//EN" "http://www.w3.org/TR/2001/REC-SVG-20010904/DTD/svg10.dtd">
<svg version="1.0" id="Layer_1" xmlns="http://www.w3.org/2000/svg" xmlns:xlink="http://www.w3.org/1999/xlink" x="0px" y="0px"
	 width="98px" height="98px" viewBox="0 0 96 96" enable-background="new 0 0 96 96" xml:space="preserve">
<g>
	<rect x="51.543" y="31.891" transform="matrix(0.7101 -0.7041 0.7041 0.7101 -9.9665 48.2166)" width="4.045" height="8.638" stroke="#ffffff" fill="#ffffff"/>
	<circle cx="64.966" cy="72.709" r="2.25" stroke="#ffffff" fill="#ffffff"/>
	<rect x="63" y="55" width="4" height="13" stroke="#ffffff" fill="#ffffff"/>
	<path d="M76.141,47.483l8.971-8.972l-9.428-9.557l-1.045,0.768c-2.984,2.195-6.012,2.234-8.277,0.029
		c-2.93-2.849-1.625-6.167-0.018-8.449l0.729-1.032l-9.442-9.44L44.995,23.457l-4.006,3.923L10.89,57.48l9.571,9.615l1.057-0.904
		c1.321-1.131,2.729-1.705,4.182-1.705c1.494,0,2.987,0.623,4.098,1.707c3.103,3.029,1.322,6.568-0.016,8.41l-0.753,1.037
		l9.544,9.527l9.755-9.756c3.619,5.215,9.643,8.635,16.469,8.635c11.07,0,20.045-8.979,20.045-20.045
		C84.841,57.145,81.393,51.098,76.141,47.483z M46.55,72.947l-7.98,7.982l-5.647-5.642c2.441-4.063,2.088-8.197-1.03-11.242
		c-1.665-1.627-3.923-2.562-6.193-2.562c-1.736,0-3.447,0.543-5.016,1.58l-5.556-5.58L43.1,29.513l0.469-0.459l3.558,3.589
		l2.875-2.849l-3.541-3.572l0.646-0.632l10.522-10.518l5.574,5.572c-2.398,4.103-2.032,8.243,1.066,11.258
		c2.988,2.908,7.181,3.28,11.059,0.963l5.555,5.631l-7.216,7.219c-0.021-0.01-0.183,0.219-0.203,0.209
		c0.007,0.012,0.011,0.021,0.017,0.033c-2.631-1.268-5.566-1.999-8.684-1.999c-0.209,0-0.41,0.024-0.617,0.031l-4.176-4.21
		l-2.871,2.849l2.109,2.127c-8.365,2.41-14.49,10.106-14.49,19.249c0,3.113,0.73,6.051,1.998,8.68
		C46.641,72.813,46.543,72.934,46.55,72.947z M64.796,80.918c-9.341,0-16.914-7.574-16.914-16.914
		c0-9.342,7.573-16.916,16.914-16.916c9.343,0,16.915,7.574,16.915,16.916C81.711,73.344,74.139,80.918,64.796,80.918z" stroke="#ffffff" fill="#ffffff"/>
</g>
</svg>
