<?xml version="1.0" encoding="utf-8"?>
<!-- Generator: Adobe Illustrator 17.0.1, SVG Export Plug-In . SVG Version: 6.00 Build 0)  -->
<!DOCTYPE svg PUBLIC "-//W3C//DTD SVG 1.1//EN" "http://www.w3.org/Graphics/SVG/1.1/DTD/svg11.dtd">
<svg version="1.1" id="Layer_1" xmlns="http://www.w3.org/2000/svg" xmlns:xlink="http://www.w3.org/1999/xlink" x="0px" y="0px"
	 width="60px" height="60px" viewBox="0 0 60 60" enable-background="new 0 0 60 60" xml:space="preserve">
<g>
	<path fill="#e5e5e5" d="M9.009,18.607v21.475H5.61V22.768c-0.615,0.439-1.277,0.813-1.985,1.121s-1.516,0.579-2.424,0.813v-2.9
		c0.566-0.186,1.113-0.381,1.641-0.586s1.047-0.435,1.56-0.688s1.03-0.537,1.553-0.85s1.062-0.669,1.619-1.069H9.009z"/>
	<path fill="#e5e5e5" d="M19.571,40.434c-2.188,0-3.894-0.894-5.12-2.681s-1.838-4.37-1.838-7.749c0-3.711,0.64-6.519,1.919-8.423
		s3.125-2.856,5.537-2.856c4.619,0,6.929,3.589,6.929,10.767c0,3.555-0.652,6.268-1.956,8.138S21.915,40.434,19.571,40.434z
		 M19.908,21.435c-2.549,0-3.823,2.808-3.823,8.423c0,5.254,1.25,7.881,3.75,7.881c2.461,0,3.691-2.671,3.691-8.013
		C23.526,24.198,22.32,21.435,19.908,21.435z"/>
	<path fill="#e5e5e5" d="M36.227,40.434c-2.188,0-3.895-0.894-5.121-2.681c-1.225-1.787-1.838-4.37-1.838-7.749
		c0-3.711,0.641-6.519,1.92-8.423s3.125-2.856,5.537-2.856c4.619,0,6.928,3.589,6.928,10.767c0,3.555-0.652,6.268-1.955,8.138
		C40.393,39.499,38.57,40.434,36.227,40.434z M36.563,21.435c-2.549,0-3.822,2.808-3.822,8.423c0,5.254,1.25,7.881,3.75,7.881
		c2.461,0,3.691-2.671,3.691-8.013C40.182,24.198,38.975,21.435,36.563,21.435z"/>
	<path fill="#e5e5e5" d="M49.037,33.807c-0.891,0-1.6-0.285-2.127-0.857c-0.527-0.57-0.791-1.334-0.791-2.289
		c0-1.043,0.279-1.865,0.84-2.465c0.559-0.601,1.313-0.901,2.263-0.901c0.92,0,1.633,0.278,2.14,0.835s0.761,1.339,0.761,2.347
		s-0.284,1.815-0.853,2.421C50.701,33.504,49.957,33.807,49.037,33.807z M49.16,28.524c-0.48,0-0.86,0.185-1.139,0.554
		s-0.417,0.876-0.417,1.521c0,0.633,0.136,1.125,0.409,1.477c0.271,0.352,0.646,0.527,1.12,0.527s0.847-0.183,1.116-0.55
		c0.27-0.365,0.404-0.874,0.404-1.524c0-0.633-0.134-1.125-0.4-1.477S49.623,28.524,49.16,28.524z M57.571,27.479L49.485,40.17
		h-1.257l8.077-12.691H57.571z M56.438,40.275c-0.891,0-1.6-0.285-2.127-0.857c-0.527-0.57-0.791-1.334-0.791-2.289
		c0-1.043,0.279-1.864,0.84-2.465c0.559-0.601,1.313-0.901,2.263-0.901c0.92,0,1.633,0.278,2.14,0.835s0.761,1.339,0.761,2.347
		s-0.284,1.815-0.853,2.421C58.102,39.973,57.357,40.275,56.438,40.275z M56.561,34.993c-0.48,0-0.86,0.185-1.139,0.554
		s-0.417,0.876-0.417,1.521c0,0.633,0.136,1.125,0.409,1.477c0.271,0.352,0.646,0.527,1.12,0.527s0.847-0.183,1.116-0.55
		c0.27-0.365,0.404-0.874,0.404-1.524c0-0.633-0.134-1.125-0.4-1.477S57.023,34.993,56.561,34.993z"/>
</g>
</svg>
