<?xml version="1.0" encoding="utf-8"?>
<svg id="Layer_1" style="enable-background:new 0 0 150 150;" x="0px" y="0px" viewBox="0 0 150 150" xmlns="http://www.w3.org/2000/svg">
  <path d="M 17.085 128.392 L 43.781 128.392 L 43.781 110.596 L 52.679 110.596 L 52.679 101.697 L 43.781 101.697 L 43.781 21.461 L 17.085 21.461 L 17.085 101.697 L 8.187 101.697 L 8.187 110.596 L 17.085 110.596 L 17.085 128.392 Z M 25.982 30.36 L 34.883 30.36 L 34.883 101.697 L 25.982 101.697 L 25.982 30.36 Z M 34.883 110.596 L 34.883 119.493 L 25.982 119.493 L 25.982 110.596 L 34.883 110.596 Z"/>
  <path d="M 61.577 128.392 L 88.274 128.392 L 88.274 79.376 L 97.174 79.376 L 97.174 70.476 L 88.274 70.476 L 88.274 21.461 L 61.577 21.461 L 61.577 70.476 L 52.679 70.476 L 52.679 79.376 L 61.577 79.376 L 61.577 128.392 Z M 79.378 119.493 L 70.477 119.493 L 70.477 79.376 L 79.378 79.376 L 79.378 119.493 Z M 70.477 30.36 L 79.378 30.36 L 79.378 70.476 L 70.477 70.476 L 70.477 30.36 Z"/>
  <path d="M 141.813 39.405 L 132.916 39.405 L 132.916 21.461 L 106.073 21.461 L 106.073 39.405 L 97.174 39.405 L 97.174 48.303 L 106.073 48.303 L 106.073 128.539 L 132.916 128.539 L 132.916 48.303 L 141.813 48.303 L 141.813 39.405 Z M 115.116 30.36 L 124.017 30.36 L 124.017 39.405 L 115.116 39.405 L 115.116 30.36 Z M 124.017 119.493 L 115.116 119.493 L 115.116 48.303 L 124.017 48.303 L 124.017 119.493 Z"/>
</svg>