<?xml version="1.0" encoding="utf-8"?>
<!-- Generator: Adobe Illustrator 21.0.0, SVG Export Plug-In . SVG Version: 6.00 Build 0)  -->
<svg version="1.1" id="Layer_1" xmlns="http://www.w3.org/2000/svg" xmlns:xlink="http://www.w3.org/1999/xlink" x="0px" y="0px"
	 width="60px" height="60px" viewBox="0 0 60 60" enable-background="new 0 0 60 60" xml:space="preserve">
<path fill="#1E1E1E" d="M33,28.5h17v3H33V28.5z"/>
<path fill="#1E1E1E" d="M23,20h7v3h-7V20z"/>
<path fill="#1E1E1E" d="M23,33h7v3h-7V33z"/>
<path fill="#1E1E1E" d="M23,38h7v3h-7V38z"/>
<path fill="#1E1E1E" d="M32.411,19.475l7.039-7.039l2.121,2.121l-7.039,7.039L32.411,19.475z"/>
<path fill="#1E1E1E" d="M39.45,47.597l-7.321-7.347l2.121-2.121l7.321,7.347L39.45,47.597z"/>
<g>
	<g>
		<path fill="#1E1E1E" d="M47,7v6h-6V7H47 M47.6,4h-7.2C39.08,4,38,5.08,38,6.4v7.2c0,1.32,1.08,2.4,2.4,2.4h7.2
			c1.32,0,2.4-1.08,2.4-2.4V6.4C50,5.08,48.92,4,47.6,4L47.6,4z"/>
	</g>
</g>
<g>
	<g>
		<path fill="#1E1E1E" d="M47,47v6h-6v-6H47 M47.6,44h-7.2c-1.32,0-2.4,1.08-2.4,2.4v7.2c0,1.32,1.08,2.4,2.4,2.4h7.2
			c1.32,0,2.4-1.08,2.4-2.4v-7.2C50,45.08,48.92,44,47.6,44L47.6,44z"/>
	</g>
</g>
<g>
	<g>
		<path fill="#1E1E1E" d="M57,27v6h-6v-6H57 M57.6,24h-7.2c-1.32,0-2.4,1.08-2.4,2.4v7.2c0,1.32,1.08,2.4,2.4,2.4h7.2
			c1.32,0,2.4-1.08,2.4-2.4v-7.2C60,25.08,58.92,24,57.6,24L57.6,24z"/>
	</g>
</g>
<g>
	<path fill="#1E1E1E" d="M32,17v26H21V17H32 M33.232,14H19.768C18.98,14,18,15.103,18,16v28.376C18,45.273,18.638,46,19.426,46
		h14.147C34.362,46,35,45.273,35,44.376V16C35,15.103,34.02,14,33.232,14L33.232,14z"/>
</g>
<path fill="#1E1E1E" d="M5,20h7v3H5V20z"/>
<path fill="#1E1E1E" d="M5,33h7v3H5V33z"/>
<path fill="#1E1E1E" d="M5,38h7v3H5V38z"/>
<g>
	<path fill="#1E1E1E" d="M14,17v26H3V17H14 M15.232,14H1.768C0.98,14,0,15.103,0,16v28.376C0,45.273,0.638,46,1.426,46h14.147
		C16.362,46,17,45.273,17,44.376V16C17,15.103,16.02,14,15.232,14L15.232,14z"/>
</g>
</svg>
