<?xml version="1.0" encoding="utf-8"?>
<!-- Generator: Adobe Illustrator 17.0.1, SVG Export Plug-In . SVG Version: 6.00 Build 0)  -->
<!DOCTYPE svg PUBLIC "-//W3C//DTD SVG 1.1//EN" "http://www.w3.org/Graphics/SVG/1.1/DTD/svg11.dtd">
<svg version="1.1" id="Layer_1" xmlns="http://www.w3.org/2000/svg" xmlns:xlink="http://www.w3.org/1999/xlink" x="0px" y="0px"
	 width="60px" height="60px" viewBox="0 0 60 60" enable-background="new 0 0 60 60" xml:space="preserve">
<path fill="#3E3E3E" d="M0,0v60h60V0H0z M31.999,56V46l4,2l-6-10l-6,10l4-2v10H4V32h9.997l-2,4l10-6l-10-6l2,4H4V4h23.999v10L24,12
	l6,10l6-10l-4.001,2V4H56v24H46l2-4l-10,6l10,6l-2-4h10v24H31.999z"/>
</svg>
