<svg id="Layer_1" data-name="Layer 1" xmlns="http://www.w3.org/2000/svg" viewBox="0 0 50 50"><defs><style>.cls-1{fill:#59b3d9;}.cls-2{fill:#3999c6;}.cls-3{fill:#7a7b7b;}.cls-4{fill:#3e3e3e;}</style></defs><title>Artboard 1</title><path class="cls-1" d="M40.81,38.9a3.6,3.6,0,1,1-1.91-4.71,3.6,3.6,0,0,1,1.91,4.71"/><path class="cls-2" d="M23.81,40.78l3-2.69V36.8L24.9,35.13C23.79,37,22.55,38,21.5,38c-1.63,0-3.7-2.43-5.07-6.64A52.51,52.51,0,0,1,22,31c1,0,2,.06,3.08.15l.42-1,4,.23.92-.91-.06-.82h-.06c0-.08,0-.17,0-.25l-.21-2.92.64-.26c.07-.72.14-1.45.16-2.2h7.87A17.22,17.22,0,0,1,38,26.83h.15l2.63-3,.87.37A20.39,20.39,0,1,0,21.5,41.9a20.33,20.33,0,0,0,2.68-.2Zm3.55-12.5C25.6,28.11,23.77,28,22,28c-2,0-4.24.15-6.35.37A34.14,34.14,0,0,1,15,23H28A34.14,34.14,0,0,1,27.36,28.28ZM15,20a34.14,34.14,0,0,1,.62-5.37c2.11.22,4.3.37,6.35.37,1.78,0,3.61-.11,5.36-.28A34.26,34.26,0,0,1,28,20Zm21.78-6.74a17.25,17.25,0,0,1,2,6.74H31a37.2,37.2,0,0,0-.63-5.63C33.13,14,35.48,13.54,36.82,13.26ZM34.9,10.44c-1.35.27-3.24.61-5.3.91a19.31,19.31,0,0,0-3.21-6.54A17.47,17.47,0,0,1,34.9,10.44ZM21.5,5c1.64,0,3.74,2.46,5.1,6.72A45.18,45.18,0,0,1,22,12a52.48,52.48,0,0,1-5.57-.36C17.79,7.43,19.87,5,21.5,5Zm-4.9-.19a19.21,19.21,0,0,0-3.18,6.45c-2.06-.29-3.94-.61-5.29-.85A17.44,17.44,0,0,1,16.6,4.81ZM6.2,13.24c1.35.26,3.71.68,6.48,1A37.1,37.1,0,0,0,12,20H4.17A17.23,17.23,0,0,1,6.2,13.24Zm0,16.53a17.24,17.24,0,0,1-2-6.76H12a37.21,37.21,0,0,0,.65,5.72C9.91,29.09,7.54,29.51,6.2,29.76ZM8.13,32.6c1.36-.24,3.24-.56,5.29-.85a19.2,19.2,0,0,0,3.18,6.45A17.45,17.45,0,0,1,8.13,32.6Z"/><path class="cls-3" d="M48.85,43.82,50,41.11l-.33-.29-2.5-2.17V36.46L50,33.94l-1.11-2.72-.43,0-3.3.23-1.54-1.56.21-3.77L41.11,25l-.29.33-2.17,2.5h-2.2L33.94,25l-2.72,1.11,0,.43.23,3.3-1.56,1.54-3.77-.21L25,33.89l.33.28,2.5,2.17v2.19L25,41.06l1.1,2.72.44,0,3.3-.23,1.54,1.56-.21,3.78L33.89,50l.28-.33,2.17-2.5,2.19,0L41.06,50l2.72-1.11,0-.44-.23-3.3,1.56-1.54ZM35.16,43A6,6,0,1,1,43,39.84,6,6,0,0,1,35.16,43"/><path class="cls-4" d="M33.88,50l.28-.33,2.17-2.5,2.19,0L41.05,50l2.72-1.11,0-.44-.23-3.3,1.56-1.54,3.77.21L50,41.11l-.33-.29-2.5-2.17V36.46L50,33.94l-1.11-2.72-.43,0-3.3.23L43.6,29.92l.21-3.77-1.65-.7-3.54,6.14a6,6,0,1,1-5.68,9.84L31,44.73l.35.36-.21,3.78Z"/></svg>