<svg id="Layer_1" data-name="Layer 1" xmlns="http://www.w3.org/2000/svg" viewBox="0 0 50 50"><defs><style>.cls-1{fill:#3999c6;}.cls-2{fill:#59b4d9;}.cls-3{fill:#fff;}.cls-4{fill:#7fba00;}.cls-5{fill:#b8d432;}</style></defs><title>Artboard 1</title><path class="cls-1" d="M6,6.79V42.9c0,3.75,8.39,6.79,18.74,6.79V6.79Z"/><path class="cls-2" d="M24.49,49.69h.26c10.35,0,18.74-3,18.74-6.79V6.79h-19Z"/><path class="cls-3" d="M43.49,6.79c0,3.75-8.39,6.79-18.74,6.79S6,10.54,6,6.79,14.39,0,24.74,0,43.49,3,43.49,6.79"/><path class="cls-4" d="M39.65,6.4c0,2.47-6.68,4.48-14.91,4.48S9.83,8.87,9.83,6.4s6.68-4.48,14.91-4.48,14.91,2,14.91,4.48"/><path class="cls-5" d="M36.53,9.13c2-.76,3.13-1.7,3.13-2.73,0-2.47-6.68-4.48-14.91-4.48S9.83,3.92,9.83,6.4c0,1,1.17,2,3.13,2.73A34.81,34.81,0,0,1,24.74,7.39,34.83,34.83,0,0,1,36.53,9.13"/><path class="cls-3" d="M36.86,36.07a6.22,6.22,0,0,1-4.13,1.26H26.84V22h5.59a6.88,6.88,0,0,1,4,1,3,3,0,0,1,1.3,2.61,3.18,3.18,0,0,1-1,2.31,4.45,4.45,0,0,1-2,1.15v0a4.26,4.26,0,0,1,2.65,1.25,3.44,3.44,0,0,1,.94,2.42,4.08,4.08,0,0,1-1.51,3.33M22.5,35.16a8.15,8.15,0,0,1-5.95,2.16H11.12V22h5.44c5.45,0,8.18,2.48,8.18,7.48a7.51,7.51,0,0,1-2.24,5.72"/><path class="cls-1" d="M16.27,24.76h-1.7v9.75h1.72a4.68,4.68,0,0,0,3.56-1.38,5.19,5.19,0,0,0,1.25-3.65,4.7,4.7,0,0,0-1.23-3.41,4.81,4.81,0,0,0-3.6-1.3"/><path class="cls-2" d="M33.49,27.63a1.8,1.8,0,0,0,.62-1.42c0-1.14-.83-1.71-2.52-1.71h-1.3v3.64h1.53a2.53,2.53,0,0,0,1.67-.51"/><path class="cls-2" d="M34.05,31.24a3.07,3.07,0,0,0-1.88-.53H30.28v4.05h1.88a3,3,0,0,0,1.91-.57,1.9,1.9,0,0,0,.66-1.51,1.69,1.69,0,0,0-.68-1.44"/></svg>