<svg id="Layer_1" data-name="Layer 1" xmlns="http://www.w3.org/2000/svg" viewBox="0 0 50 50"><defs><style>.cls-1{fill:#fee087;}.cls-2{fill:#1e1e1e;}.cls-2,.cls-4{opacity:0.2;isolation:isolate;}.cls-3{fill:#59b4d9;}.cls-4{fill:#fff;}</style></defs><title>Artboard 1</title><path class="cls-1" d="M43,9V5L21.39,5,17,1H3V35.12a2,2,0,0,0,2,2H43a2.05,2.05,0,0,0,2-2.27V9Z"/><path class="cls-2" d="M7,9V35a2.1,2.1,0,0,1-2,2.08A2.08,2.08,0,0,1,3,35V1H17l4.39,4L43,5V9Z"/><path class="cls-3" d="M40.9,20A7.9,7.9,0,1,1,33,12.1,7.9,7.9,0,0,1,40.9,20"/><polygon class="cls-3" points="38.37 29.11 33 37.17 27.63 29.11 19 29.11 19 49 47 49 47 29.11 38.37 29.11"/><path class="cls-4" d="M25.1,20a7.84,7.84,0,0,0,7.66,7.84l2-15.48A7.83,7.83,0,0,0,25.1,20"/><polygon class="cls-4" points="19 29.16 19 49 30.14 49 31.77 35.38 27.63 29.16 19 29.16"/></svg>