<svg id="Layer_1" data-name="Layer 1" xmlns="http://www.w3.org/2000/svg" viewBox="0 0 50 50"><defs><style>.cls-1{fill:#7a7a7a;}.cls-2{fill:#7fba00;}.cls-3{fill:#fee087;}.cls-4{fill:#1e1e1e;opacity:0.2;isolation:isolate;}</style></defs><title>Artboard 1</title><rect class="cls-1" x="23" y="32" width="4" height="11"/><rect class="cls-1" x="4" y="45" width="42" height="4"/><rect class="cls-2" x="22" y="39" width="6" height="8"/><rect class="cls-2" x="17" y="44" width="16" height="6"/><path class="cls-3" d="M44,8V4L22.39,4,18,0H4V33.12a2,2,0,0,0,2,2H44a2.05,2.05,0,0,0,2-2.27V8Z"/><path class="cls-4" d="M8,8V33a2.1,2.1,0,0,1-2,2.08A2.08,2.08,0,0,1,4,33V0H18l4.39,4L44,4V8Z"/></svg>