<svg id="Layer_1" data-name="Layer 1" xmlns="http://www.w3.org/2000/svg" viewBox="0 0 50 50"><defs><style>.cls-1{fill:#59b4d9;}.cls-2{fill:#fff;}</style></defs><title>Artboard 1</title><path class="cls-1" d="M40.19,44.84A25,25,0,1,1,9.81,5.15,25,25,0,0,1,40.19,44.84"/><path class="cls-2" d="M35.6,29.38a5.39,5.39,0,0,0,7.54,1c.12-.09.22-.21.33-.31,2.41,1.7,4.08,2.82,5,3.46a21.57,21.57,0,0,0,.67-2.14c-1-.74-2.34-1.78-4.29-3.36a5.34,5.34,0,0,0-7.67-6.55c-2.55-2.28-5.34-4.9-8.29-7.83,9.17-4.93,15.68-4.21,15.68-4.21A25.11,25.11,0,0,0,41,5.75,26.63,26.63,0,0,0,24.26,8.87h0q-3.43-3.59-7-7.71A23.26,23.26,0,0,0,14,2.5a53.84,53.84,0,0,0,6.75,8.56h0l0,0a46.29,46.29,0,0,0-6.94,6c-.29.31-.57.62-.84.93a7.55,7.55,0,0,0-4.12.28A18.27,18.27,0,0,1,7.1,7.48a26.35,26.35,0,0,0-2.69,3.27,16,16,0,0,0,1,10.1,7.54,7.54,0,0,0,0,9.15,7.74,7.74,0,0,0,.56.65A37.87,37.87,0,0,0,4.49,39.4c.24.32.24.58.47.9a25.37,25.37,0,0,0,4.16,4,27.56,27.56,0,0,1,1.71-11.37,7.51,7.51,0,0,0,3.48-.57c.64.56,1.31,1.13,2,1.71a41.67,41.67,0,0,0,7.28,4.64,4.94,4.94,0,0,0,8,4.44,4.92,4.92,0,0,0,1.11-1.22,44.6,44.6,0,0,0,9.81,1c.39,0,2.18-2.44,3.2-3.95a26.37,26.37,0,0,1-12.3-.84,4.91,4.91,0,0,0-7.52-3.11,46.85,46.85,0,0,1-6.76-4.49q-.71-.56-1.36-1.12a7.58,7.58,0,0,0,.32-7.55c.29-.29.57-.57.87-.86a54.89,54.89,0,0,1,6.52-5.27l-.24-.23.24.23h0c3.12,2.89,6.43,5.62,9.56,8.07A5.35,5.35,0,0,0,35.6,29.38Z"/></svg>